<svg width="13" height="13" viewBox="0 0 13 13" fill="none" xmlns="http://www.w3.org/2000/svg">
<g opacity="0.7" clip-path="url(#clip0)">
<path d="M0.464283 1.38323H12.5357C12.792 1.38323 13 1.17663 13 0.922083C13 0.667532 12.792 0.460938 12.5357 0.460938H0.464283C0.208 0.460938 0 0.667532 0 0.922083C0 1.17663 0.208 1.38323 0.464283 1.38323ZM0.464283 5.07244H8.82143C9.0777 5.07244 9.2857 4.86584 9.2857 4.61129C9.2857 4.35674 9.0777 4.15015 8.82143 4.15015H0.464283C0.208 4.15012 0 4.35672 0 4.61127C0 4.86584 0.208 5.07244 0.464283 5.07244ZM7.42857 11.5285H0.464283C0.208 11.5285 0 11.7351 0 11.9897C0 12.2442 0.208 12.4508 0.464283 12.4508H7.42857C7.68485 12.4508 7.89285 12.2442 7.89285 11.9897C7.89285 11.7351 7.68485 11.5285 7.42857 11.5285ZM12.5357 7.83931H6.5H0.464283C0.208 7.83931 0 8.04591 0 8.30048C0 8.55505 0.208 8.76162 0.464283 8.76162H12.5357C12.792 8.76162 13 8.55503 13 8.30048C13 8.04593 12.792 7.83931 12.5357 7.83931Z" fill="black"/>
</g>
<defs>
<clipPath id="clip0">
<rect width="13" height="12.9122" fill="white"/>
</clipPath>
</defs>
</svg>
