<svg width="13" height="13" viewBox="0 0 13 13" fill="none" xmlns="http://www.w3.org/2000/svg">
<g opacity="0.7" clip-path="url(#clip0)">
<path d="M12.5357 11.5284L0.464281 11.5284C0.207999 11.5284 0 11.735 0 11.9895C0 12.2441 0.207999 12.4507 0.464281 12.4507L12.5357 12.4507C12.792 12.4507 13 12.2441 13 11.9895C13 11.735 12.792 11.5284 12.5357 11.5284ZM12.5357 7.83918L4.17857 7.83918C3.9223 7.83918 3.7143 8.04578 3.7143 8.30033C3.7143 8.55488 3.9223 8.76148 4.17857 8.76148H12.5357C12.792 8.7615 13 8.5549 13 8.30035C13 8.04578 12.792 7.83918 12.5357 7.83918ZM5.57143 1.3831L12.5357 1.3831C12.792 1.3831 13 1.17651 13 0.921957C13 0.667427 12.792 0.460833 12.5357 0.460833L5.57143 0.460833C5.31515 0.460833 5.10715 0.667427 5.10715 0.921957C5.10715 1.17651 5.31515 1.3831 5.57143 1.3831ZM0.464281 5.07231L6.5 5.07231L12.5357 5.07231C12.792 5.07231 13 4.86572 13 4.61114C13 4.35657 12.792 4.15 12.5357 4.15L0.464281 4.15C0.207999 4.15 0 4.35659 0 4.61114C0 4.86569 0.207999 5.07231 0.464281 5.07231Z" fill="black"/>
</g>
<defs>
<clipPath id="clip0">
<rect width="13" height="12.9122" fill="white"/>
</clipPath>
</defs>
</svg>
