<svg width="13" height="13" viewBox="0 0 13 13" fill="none" xmlns="http://www.w3.org/2000/svg">
<g opacity="0.7" clip-path="url(#clip0)">
<path d="M0.464283 0.989189H12.5357C12.792 0.989189 13 0.767609 13 0.494594C13 0.22158 12.792 0 12.5357 0H0.464283C0.208 0 0 0.22158 0 0.494594C0 0.767609 0.208 0.989189 0.464283 0.989189ZM2.32143 3.95678C2.06515 3.95678 1.85715 4.17836 1.85715 4.45137C1.85715 4.72439 2.06515 4.94597 2.32143 4.94597H10.6786C10.9348 4.94597 11.1428 4.72439 11.1428 4.45137C11.1428 4.17836 10.9348 3.95678 10.6786 3.95678H2.32143ZM9.75 11.8704H3.25C2.99372 11.8704 2.78572 12.0919 2.78572 12.3649C2.78572 12.6379 2.99372 12.8595 3.25 12.8595H9.75C10.0063 12.8595 10.2143 12.6379 10.2143 12.3649C10.2143 12.0919 10.0063 11.8704 9.75 11.8704ZM12.5357 7.91355H0.464283C0.208 7.91355 0 8.13513 0 8.40817C0 8.68121 0.208 8.90277 0.464283 8.90277H12.5357C12.792 8.90277 13 8.68119 13 8.40817C13 8.13516 12.792 7.91355 12.5357 7.91355Z" fill="black"/>
</g>
<defs>
<clipPath id="clip0">
<rect width="13" height="12.9122" fill="white"/>
</clipPath>
</defs>
</svg>
