<svg width="10" height="13" viewBox="0 0 10 13" fill="none" xmlns="http://www.w3.org/2000/svg">
<path d="M9.03846 1.53846H6.92308V1.15385C6.92308 0.51762 6.40546 0 5.76923 0H4.23077C3.59454 0 3.07692 0.51762 3.07692 1.15385V1.53846H0.961538C0.431346 1.53846 0 1.96981 0 2.5V3.84615C0 4.05856 0.172212 4.23077 0.384615 4.23077H0.594808L0.927091 11.2087C0.956442 11.825 1.46269 12.3077 2.07962 12.3077H7.92038C8.53733 12.3077 9.04358 11.825 9.07291 11.2087L9.40519 4.23077H9.61539C9.82779 4.23077 10 4.05856 10 3.84615V2.5C10 1.96981 9.56865 1.53846 9.03846 1.53846ZM3.84615 1.15385C3.84615 0.941779 4.0187 0.769231 4.23077 0.769231H5.76923C5.9813 0.769231 6.15385 0.941779 6.15385 1.15385V1.53846H3.84615V1.15385ZM0.769231 2.5C0.769231 2.39397 0.855505 2.30769 0.961538 2.30769H9.03846C9.1445 2.30769 9.23077 2.39397 9.23077 2.5V3.46154C9.11224 3.46154 1.26041 3.46154 0.769231 3.46154V2.5ZM8.30454 11.1721C8.29476 11.3775 8.12601 11.5385 7.92038 11.5385H2.07962C1.87397 11.5385 1.70522 11.3775 1.69546 11.1721L1.3649 4.23077H8.6351L8.30454 11.1721Z" fill="white"/>
<path d="M4.99997 10.7692C5.21238 10.7692 5.38459 10.597 5.38459 10.3846V5.38462C5.38459 5.17221 5.21238 5 4.99997 5C4.78757 5 4.61536 5.17221 4.61536 5.38462V10.3846C4.61536 10.597 4.78754 10.7692 4.99997 10.7692Z" fill="white"/>
<path d="M6.92307 10.7692C7.13547 10.7692 7.30768 10.597 7.30768 10.3846V5.38462C7.30768 5.17221 7.13547 5 6.92307 5C6.71066 5 6.53845 5.17221 6.53845 5.38462V10.3846C6.53845 10.597 6.71064 10.7692 6.92307 10.7692Z" fill="white"/>
<path d="M3.07688 10.7692C3.28928 10.7692 3.46149 10.597 3.46149 10.3846V5.38462C3.46149 5.17221 3.28928 5 3.07688 5C2.86447 5 2.69226 5.17221 2.69226 5.38462V10.3846C2.69226 10.597 2.86445 10.7692 3.07688 10.7692Z" fill="white"/>
</svg>
