<svg
    xmlns="http://www.w3.org/2000/svg"
    width="18"
    height="18"
    fill="none"
    viewBox="0 0 18 18"
    fill="#fff"
>
    <path
    d="M8.403 13.534a.843.843 0 001.194 0l3.182-3.182a.844.844 0 00-1.194-1.193L9.844 10.9V1.688a.844.844 0 10-1.688 0V10.9L6.415 9.16a.844.844 0 00-1.194 1.193l3.182 3.182z"
    ></path>
    <path
    d="M16.313 8.156a.844.844 0 00-.844.844v6.469H2.53V9A.844.844 0 10.844 9v6.75a1.406 1.406 0 001.406 1.406h13.5a1.406 1.406 0 001.406-1.406V9a.843.843 0 00-.843-.844z"
    ></path>
</svg>