<svg
    xmlns="http://www.w3.org/2000/svg"
    width="18"
    height="18"
    fill="none"
    viewBox="0 0 18 18"
    fill="#fff"
>
    <g  clipPath="url(#clip0)">
    <path d="M11.116 3.023l-9.904 9.905a.395.395 0 00-.103.18L.011 17.516a.392.392 0 00.473.472L4.89 16.89a.39.39 0 00.18-.103l9.906-9.904-3.86-3.86zM17.43 1.673L16.326.57c-.737-.736-2.021-.736-2.757 0l-1.35 1.35 3.859 3.86 1.35-1.35c.368-.368.571-.858.571-1.379 0-.52-.203-1.01-.57-1.378z"></path>
    </g>
    <defs>
    <clipPath id="clip0">
        <path  d="M0 0H18V18H0z"></path>
    </clipPath>
    </defs>
</svg>