<svg width="16" height="16" viewBox="0 0 16 16" fill="none" xmlns="http://www.w3.org/2000/svg">
<path d="M8.00003 14C4.53603 14 1.4567 11.9553 0.155366 8.79067C-0.0513005 8.28867 -0.0513005 7.712 0.155366 7.21C1.4567 4.04467 4.53603 2 8.00003 2C11.464 2 14.5434 4.04467 15.8447 7.20933C16.0514 7.71133 16.0514 8.288 15.8447 8.79C14.5434 11.9553 11.464 14 8.00003 14ZM8.00003 2.66667C4.80737 2.66667 1.97003 4.54933 0.772033 7.46267C0.632033 7.804 0.632033 8.19533 0.772033 8.53667C1.97003 11.4507 4.80737 13.3333 8.00003 13.3333C11.1927 13.3333 14.03 11.4507 15.228 8.53733C15.368 8.196 15.368 7.80467 15.228 7.46333C14.03 4.54933 11.1927 2.66667 8.00003 2.66667Z" fill="#252525"/>
<path d="M8.00004 10.6668C6.52937 10.6668 5.33337 9.47082 5.33337 8.00016C5.33337 6.52949 6.52937 5.3335 8.00004 5.3335C9.4707 5.3335 10.6667 6.52949 10.6667 8.00016C10.6667 9.47082 9.4707 10.6668 8.00004 10.6668ZM8.00004 6.00016C6.89737 6.00016 6.00004 6.89749 6.00004 8.00016C6.00004 9.10282 6.89737 10.0002 8.00004 10.0002C9.1027 10.0002 10 9.10282 10 8.00016C10 6.89749 9.1027 6.00016 8.00004 6.00016Z" fill="#252525"/>
</svg>
