<svg width="30" height="30" viewBox="0 0 30 30" fill="none" xmlns="http://www.w3.org/2000/svg">
<rect width="30" height="30" fill="white"/>
<path d="M26.3787 8.85678V24.3612C26.3792 24.4665 26.3679 24.5716 26.3451 24.6744L26.2445 25.0099C25.9945 25.5833 25.427 25.9528 24.8015 25.9494H1.57746C0.849695 25.9473 0.217222 25.4491 0.0448878 24.742C0.0128544 24.6177 -0.00216896 24.4896 0.000252167 24.3612V5.35366C-0.00117568 4.60745 0.602616 4.00137 1.34882 4H1.35397H8.26033C8.74263 4.00168 9.18855 4.25658 9.43476 4.67134L11.068 7.50163H25.0357C25.7807 7.50486 26.382 8.11138 26.3787 8.85641V8.85678Z" fill="#EAA14E"/>
<path d="M28.6318 11.2075C29.3875 11.2076 30.0001 11.8202 30 12.5759C30 12.712 29.9796 12.8474 29.9397 12.9775L26.3443 24.6744L26.2437 25.0099C25.9938 25.5834 25.4263 25.9529 24.8008 25.9494H1.57746C0.849699 25.9474 0.217226 25.4491 0.0448914 24.7421L3.81322 12.1814C3.98711 11.6037 4.51895 11.208 5.12224 11.2075H28.6318Z" fill="#F6B863"/>
</svg>
