<svg width="20" height="20" viewBox="0 0 20 20" fill="none" xmlns="http://www.w3.org/2000/svg">
<g opacity="0.6">
<path d="M7.5 18.3406C7.155 18.3406 6.875 18.0606 6.875 17.7156V2.26562C6.875 1.92062 7.155 1.64062 7.5 1.64062C7.845 1.64062 8.125 1.92062 8.125 2.26562V17.7156C8.125 18.0606 7.845 18.3406 7.5 18.3406Z" fill="black"/>
<path d="M14.375 4.97818C14.03 4.97818 13.75 4.69818 13.75 4.35318V2.89062H1.25V4.35318C1.25 4.69818 0.970001 4.97818 0.625 4.97818C0.279999 4.97818 0 4.69818 0 4.35318V2.26562C0 1.92062 0.279999 1.64062 0.625 1.64062H14.375C14.72 1.64062 15 1.92062 15 2.26562V4.35318C15 4.69818 14.72 4.97818 14.375 4.97818Z" fill="black"/>
<path d="M9.375 18.3408H5.625C5.28 18.3408 5 18.0608 5 17.7158C5 17.3708 5.28 17.0908 5.625 17.0908H9.375C9.72 17.0908 10 17.3708 10 17.7158C10 18.0608 9.72 18.3408 9.375 18.3408Z" fill="black"/>
<path d="M12.2917 11.8679C11.9467 11.8679 11.6667 11.5879 11.6667 11.2429V9.78125C11.6667 9.43625 11.9467 9.15625 12.2917 9.15625H19.375C19.72 9.15625 20 9.43625 20 9.78125V11.0337C20 11.3787 19.72 11.6587 19.375 11.6587C19.03 11.6587 18.75 11.3787 18.75 11.0337V10.4062H12.9167V11.2429C12.9167 11.5879 12.6367 11.8679 12.2917 11.8679Z" fill="black"/>
<path d="M15.8333 18.3404C15.4883 18.3404 15.2083 18.0604 15.2083 17.7154V9.78125C15.2083 9.43625 15.4883 9.15625 15.8333 9.15625C16.1783 9.15625 16.4583 9.43625 16.4583 9.78125V17.7154C16.4583 18.0604 16.1783 18.3404 15.8333 18.3404Z" fill="black"/>
<path d="M16.875 18.3408H14.7917C14.4467 18.3408 14.1667 18.0608 14.1667 17.7158C14.1667 17.3708 14.4467 17.0908 14.7917 17.0908H16.875C17.22 17.0908 17.5 17.3708 17.5 17.7158C17.5 18.0608 17.22 18.3408 16.875 18.3408Z" fill="black"/>
</g>
</svg>
