<svg width="15" height="15" viewBox="0 0 15 15" fill="none" xmlns="http://www.w3.org/2000/svg">
<g clip-path="url(#clip0)">
<path d="M14.6876 1.0957H5.31535C5.14351 1.0957 5.00293 1.23629 5.00293 1.40812V3.58561C5.00293 3.74181 5.1154 3.88239 5.26849 3.90427C5.46217 3.93239 5.62776 3.78243 5.62776 3.59499V1.72054H9.68908V13.2796H8.44881C8.29261 13.2796 8.15203 13.3921 8.13015 13.5452C8.10204 13.7389 8.25199 13.9045 8.43944 13.9045H11.5542C11.7103 13.9045 11.8509 13.792 11.8728 13.6389C11.9009 13.4452 11.751 13.2796 11.5635 13.2796H10.3139V1.72051H14.3752V3.58558C14.3752 3.74178 14.4877 3.88236 14.6408 3.90424C14.8344 3.93236 15 3.7824 15 3.59496V1.40812C15 1.23629 14.8594 1.0957 14.6876 1.0957Z" fill="black"/>
<path d="M3.22222 11.8083L2.19127 12.8392V2.1611L3.21908 3.19205C3.34406 3.31075 3.54087 3.30765 3.65958 3.18581C3.77518 3.06397 3.77518 2.87339 3.65958 2.75155L2.09755 1.18952C1.97571 1.06768 1.77889 1.06768 1.65705 1.18952L0.0950233 2.75155C-0.0643047 2.90464 -0.0236819 3.18891 0.219996 3.27326C0.329329 3.31075 0.451168 3.2764 0.532414 3.19515L0.535548 3.19202L1.56649 2.16107V12.8361L0.538681 11.8082C0.413709 11.6895 0.216892 11.6926 0.0981864 11.8145C-0.0174143 11.9363 -0.0174143 12.1269 0.0981864 12.2487L1.66022 13.8108C1.78206 13.9326 1.97887 13.9326 2.10071 13.8108L3.66274 12.2487C3.78145 12.1238 3.77834 11.9269 3.6565 11.8082C3.53463 11.6927 3.34406 11.6927 3.22222 11.8083Z" fill="black"/>
</g>
<defs>
<clipPath id="clip0">
<rect width="15" height="15" fill="white"/>
</clipPath>
</defs>
</svg>
