<svg width="50" height="50" viewBox="0 0 50 50" fill="none" xmlns="http://www.w3.org/2000/svg">
<circle cx="25" cy="25" r="25" fill="#3DC4FE"/>
<g clip-path="url(#clip0)">
<path d="M37.4192 11.6046H31.774C29.7277 12.416 29.2741 11.04 24.9999 11.04C20.7257 11.04 20.2721 12.416 18.2257 11.6046H12.5806L11.8279 25.7881C12.2983 31.3627 15.7559 34.3969 18.4845 35.5024H31.5154C34.2439 34.3969 37.7016 31.3627 38.172 25.7881L37.4192 11.6046Z" fill="#F5DCB4"/>
<path d="M31.7742 11.6046C38.1303 13.5071 34.6701 23.3183 38.7628 27.5593C39.3503 28.1681 40.3884 27.8977 40.6336 27.0879C40.9576 26.018 41.2812 24.3255 41.2298 21.9071C41.1592 18.5905 42.5 18.3789 42.5 18.3789C42.5 18.3789 40.8064 10.4756 35.7258 10.4756C34.0322 10.4756 31.7742 11.6046 31.7742 11.6046Z" fill="#965A50"/>
<path d="M19.0725 26.2823C17.9858 26.2823 17.0967 25.3932 17.0967 24.3065V23.1775C17.0967 22.0907 17.9858 21.2017 19.0725 21.2017C20.1592 21.2017 21.0483 22.0907 21.0483 23.1775V24.3065C21.0483 25.3933 20.1592 26.2823 19.0725 26.2823Z" fill="#4B3F4E"/>
<path d="M19.0725 21.2017C18.9759 21.2017 18.8833 21.2168 18.7903 21.2303V24.0242C18.7903 24.6477 19.2958 25.1532 19.9193 25.1532C20.5429 25.1532 21.0483 24.6477 21.0483 24.0242V23.1775C21.0484 22.0909 20.1592 21.2017 19.0725 21.2017Z" fill="#5D5360"/>
<path d="M19.0726 23.4596C19.5403 23.4596 19.9194 23.0805 19.9194 22.6129C19.9194 22.1452 19.5403 21.7661 19.0726 21.7661C18.6049 21.7661 18.2258 22.1452 18.2258 22.6129C18.2258 23.0805 18.6049 23.4596 19.0726 23.4596Z" fill="white"/>
<path d="M30.9275 26.2823C29.8407 26.2823 28.9517 25.3932 28.9517 24.3065V23.1775C28.9517 22.0907 29.8407 21.2017 30.9275 21.2017C32.0142 21.2017 32.9032 22.0907 32.9032 23.1775V24.3065C32.9032 25.3933 32.0141 26.2823 30.9275 26.2823Z" fill="#4B3F4E"/>
<path d="M30.9275 21.2017C30.8309 21.2017 30.7382 21.2168 30.6453 21.2303V24.0242C30.6453 24.6477 31.1508 25.1532 31.7743 25.1532C32.3979 25.1532 32.9033 24.6477 32.9033 24.0242V23.1775C32.9033 22.0909 32.0142 21.2017 30.9275 21.2017Z" fill="#5D5360"/>
<path d="M30.9273 23.4596C31.395 23.4596 31.7741 23.0805 31.7741 22.6129C31.7741 22.1452 31.395 21.7661 30.9273 21.7661C30.4597 21.7661 30.0806 22.1452 30.0806 22.6129C30.0806 23.0805 30.4597 23.4596 30.9273 23.4596Z" fill="white"/>
<path d="M38.7628 27.5597C39.3503 28.1685 40.3884 27.8981 40.6336 27.0883C40.8194 26.4747 41.0027 25.6487 41.1176 24.606C40.0079 24.0528 39.0605 22.2879 38.4778 19.2966C37.4193 13.8631 35.9375 10.8288 31.7742 11.605C38.1303 13.5075 34.6701 23.3188 38.7628 27.5597Z" fill="#824641"/>
<path d="M18.4845 35.5028H21.1602C21.1602 35.5028 16.4617 32.351 15.6855 26.7763C14.1755 15.9316 17.0497 12.6869 19.5357 11.8589C19.1419 11.8723 18.7329 11.806 18.2258 11.605H12.5806L11.8279 25.7885C12.2983 31.363 15.7559 34.3973 18.4845 35.5028Z" fill="#E7C9A5"/>
<path d="M18.2258 11.6046C11.8697 13.5071 15.33 23.3184 11.2372 27.5593C10.6497 28.1681 9.61155 27.8977 9.36635 27.0879C9.04232 26.018 8.71871 24.3255 8.77019 21.9071C8.84073 18.5905 7.5 18.3789 7.5 18.3789C7.5 18.3789 9.19354 10.4756 14.2742 10.4756C15.9677 10.4756 18.2258 11.6046 18.2258 11.6046Z" fill="#965A50"/>
<path d="M18.0368 11.5147C17.464 11.2489 15.6774 10.4756 14.2742 10.4756C9.19354 10.4756 7.5 18.3789 7.5 18.3789C7.5 18.3789 8.84073 18.5906 8.77019 21.9071C8.76923 21.9514 8.77053 21.9913 8.76984 22.0351C12.0183 9.71078 17.0101 11.0819 18.0368 11.5147Z" fill="#824641"/>
<path d="M25 40.3949C28.4296 40.3949 31.2098 38.3731 31.2098 35.8791C31.2098 33.3851 28.4296 31.3633 25 31.3633C21.5705 31.3633 18.7903 33.3851 18.7903 35.8791C18.7903 38.3731 21.5705 40.3949 25 40.3949Z" fill="#BC8E78"/>
<path d="M22.1775 35.8789V38.7015C22.1775 40.2603 23.4412 41.524 25 41.524C26.5589 41.524 27.8226 40.2603 27.8226 38.7015V35.8789H22.1775Z" fill="#FF8087"/>
<path d="M22.1775 38.0837C22.9938 37.9814 23.764 37.7331 24.4355 37.3576V38.137C24.4355 38.4487 24.6883 38.7015 25 38.7015C25.3118 38.7015 25.5646 38.4487 25.5646 38.137V37.3504C26.2296 37.7299 27.0019 37.981 27.8226 38.0839V35.8789H22.1775V38.0837Z" fill="#E6646E"/>
<path d="M28.6694 30.7983H21.3308C18.9925 30.7983 17.0969 32.1884 17.0969 33.9032C17.0969 35.6179 18.9925 37.008 21.3308 37.008C22.5083 37.008 23.5717 36.6546 24.3382 36.0853C24.5323 35.9412 24.7663 35.8691 24.9999 35.8691C25.2339 35.8691 25.4679 35.9411 25.6619 36.0853C26.4285 36.6546 27.4919 37.008 28.6694 37.008C31.0077 37.008 32.9033 35.6179 32.9033 33.9032C32.9033 32.1884 31.0077 30.7983 28.6694 30.7983Z" fill="#D4AF91"/>
<path d="M25 28.54C26.8707 28.54 28.3871 29.551 28.3871 30.7981C28.3871 32.0008 26.9636 32.6341 25.9362 33.1023C25.3406 33.3738 24.6592 33.3738 24.0637 33.1023C23.0363 32.6341 21.6128 32.0008 21.6128 30.7981C21.6129 29.5511 23.1293 28.54 25 28.54Z" fill="#5D5360"/>
<path d="M23.2889 30.1811C23.21 29.4707 23.7104 28.7109 23.7104 28.7109C22.4798 29.0492 21.613 29.856 21.613 30.7986C21.613 32.0012 23.0366 32.6345 24.0639 33.1028C24.6594 33.3742 25.3409 33.3742 25.9364 33.1028C26.1574 33.0021 26.3966 32.893 26.6361 32.7731C25.2471 32.5274 23.4477 31.6101 23.2889 30.1811Z" fill="#4B3F4E"/>
</g>
<defs>
<clipPath id="clip0">
<rect width="35" height="35" fill="white" transform="translate(7.5 8.5)"/>
</clipPath>
</defs>
</svg>
