<svg width="50" height="50" viewBox="0 0 50 50" fill="none" xmlns="http://www.w3.org/2000/svg">
<path d="M25 50C38.8071 50 50 38.8071 50 25C50 11.1929 38.8071 0 25 0C11.1929 0 0 11.1929 0 25C0 38.8071 11.1929 50 25 50Z" fill="#FFCA28"/>
<path d="M39.0312 20.3438C38.1687 20.3438 37.4687 19.6437 37.4687 18.7812C37.4687 17.0594 36.0687 15.6562 34.3437 15.6562C32.6187 15.6562 31.2187 17.0594 31.2187 18.7812C31.2187 19.6437 30.5187 20.3438 29.6562 20.3438C28.7937 20.3438 28.0938 19.6437 28.0938 18.7812C28.0938 15.3344 30.8969 12.5312 34.3437 12.5312C37.7906 12.5312 40.5937 15.3344 40.5937 18.7812C40.5937 19.6469 39.8937 20.3438 39.0312 20.3438Z" fill="#6D4C41"/>
<path d="M20.2813 20.3438C19.4188 20.3438 18.7187 19.6437 18.7187 18.7812C18.7187 17.0594 17.3156 15.6562 15.5937 15.6562C13.8719 15.6562 12.4688 17.0594 12.4688 18.7812C12.4688 19.6437 11.7688 20.3438 10.9063 20.3438C10.0438 20.3438 9.34375 19.6437 9.34375 18.7812C9.34375 15.3344 12.1469 12.5312 15.5937 12.5312C19.0406 12.5312 21.8438 15.3344 21.8438 18.7812C21.8438 19.6469 21.1438 20.3438 20.2813 20.3438Z" fill="#6D4C41"/>
<path d="M42.7439 28.7781C42.4471 28.3875 41.9877 28.1562 41.5002 28.1562H8.43768C7.94706 28.1562 7.48768 28.3844 7.19393 28.775C6.89393 29.1688 6.80018 29.6719 6.93143 30.1437C9.19081 38.1719 16.6096 43.7813 24.9658 43.7813C33.3221 43.7813 40.7408 38.1719 43.0002 30.1437C43.1346 29.6719 43.0408 29.1687 42.7439 28.7781Z" fill="#FAFAFA"/>
</svg>
