<svg width="30" height="30" viewBox="0 0 30 30" fill="none" xmlns="http://www.w3.org/2000/svg">
<path d="M0.982848 8.09037L23.6196 2.03824C24.3233 1.85057 25.0739 2.27279 25.2616 2.97656L29.742 19.6081C29.9297 20.3118 29.5075 21.039 28.7802 21.2266L6.14359 27.2788C5.43988 27.4664 4.68924 27.0442 4.50157 26.3404L0.0445901 9.70893C-0.143085 9.00522 0.27914 8.27804 0.982848 8.09037Z" fill="#E4E7E7"/>
<path d="M2.88297 9.42774L22.6813 4.14978C23.2208 4.00904 23.7838 4.33746 23.948 4.87696L27.6543 18.6466C27.7951 19.1861 27.4667 19.7492 26.9272 19.8899L7.12881 25.1679C6.58931 25.3086 6.02628 24.9802 5.86207 24.4407L2.1558 10.671C1.99159 10.1315 2.32001 9.56848 2.88297 9.42774Z" fill="#208DB2"/>
<path d="M5.08793 7.85596H28.6629C29.4135 7.85596 30 8.46586 30 9.19303V26.669C30 27.4196 29.3901 28.0061 28.6629 28.0061H5.08793C4.33729 28.0061 3.75085 27.3962 3.75085 26.669V9.19309C3.75085 8.46586 4.36075 7.85596 5.08793 7.85596Z" fill="#F3F3F3"/>
<path d="M6.65963 9.73242H27.1382C27.7012 9.73242 28.1703 10.2016 28.1703 10.7645V25.1207C28.1703 25.6836 27.7012 26.1528 27.1382 26.1528H6.65963C6.09666 26.1528 5.6275 25.6836 5.6275 25.1207V10.7645C5.6275 10.2016 6.07319 9.73242 6.65963 9.73242Z" fill="#A3E0F5"/>
<path d="M5.6275 10.7645V15.7845C5.86205 15.808 6.09666 15.8314 6.33121 15.8314C9.31031 15.8314 11.7265 13.4153 11.7265 10.4361C11.7265 10.2016 11.703 9.96697 11.6796 9.73242H6.65963C6.07319 9.73242 5.6275 10.2016 5.6275 10.7645Z" fill="#EFC75E"/>
<path d="M7.33993 21.2271C6.7535 21.2271 6.16706 21.274 5.6275 21.3443V25.121C5.6275 25.684 6.09666 26.1531 6.65963 26.1531H14.4711C14.518 25.942 14.5415 25.7544 14.5415 25.5432C14.5414 23.1506 11.3277 21.2271 7.33993 21.2271Z" fill="#3DB39E"/>
<path d="M23.6899 19.1157C17.2625 19.1157 12.0314 22.259 11.9611 26.153H27.1148C27.6777 26.153 28.1469 25.6839 28.1469 25.1209V19.6553C26.7629 19.3269 25.2616 19.1157 23.6899 19.1157Z" fill="#4BC2AD"/>
</svg>
