<svg width="16" height="16" viewBox="0 0 16 16" fill="none" xmlns="http://www.w3.org/2000/svg">
<path d="M9.22754 8.08496C10.1071 8.29004 10.7246 8.53841 11.0801 8.83008C11.5905 9.24479 11.8457 9.78255 11.8457 10.4434C11.8457 11.1406 11.5654 11.7171 11.0049 12.1729C10.3167 12.7243 9.31641 13 8.00391 13H3.29395V12.7471C3.72233 12.7471 4.01172 12.7083 4.16211 12.6309C4.31706 12.5488 4.42415 12.444 4.4834 12.3164C4.5472 12.1888 4.5791 11.8743 4.5791 11.373V5.35742C4.5791 4.85612 4.5472 4.54167 4.4834 4.41406C4.42415 4.2819 4.31706 4.17708 4.16211 4.09961C4.00716 4.02214 3.71777 3.9834 3.29395 3.9834V3.73047H7.7373C8.79915 3.73047 9.55111 3.82617 9.99316 4.01758C10.4352 4.20443 10.7839 4.48698 11.0391 4.86523C11.2943 5.23893 11.4219 5.6377 11.4219 6.06152C11.4219 6.50814 11.2601 6.9069 10.9365 7.25781C10.613 7.60417 10.0433 7.87988 9.22754 8.08496ZM6.73926 7.90039C7.38639 7.90039 7.86263 7.82747 8.16797 7.68164C8.47786 7.53581 8.71484 7.33073 8.87891 7.06641C9.04297 6.80208 9.125 6.46484 9.125 6.05469C9.125 5.64453 9.04297 5.30957 8.87891 5.0498C8.7194 4.78548 8.48926 4.58496 8.18848 4.44824C7.8877 4.31152 7.40462 4.24544 6.73926 4.25V7.90039ZM6.73926 8.43359V11.4072L6.73242 11.749C6.73242 11.9951 6.79395 12.182 6.91699 12.3096C7.0446 12.4326 7.23145 12.4941 7.47754 12.4941C7.84212 12.4941 8.17708 12.4144 8.48242 12.2549C8.79232 12.0908 9.0293 11.8561 9.19336 11.5508C9.35742 11.2409 9.43945 10.8968 9.43945 10.5186C9.43945 10.0856 9.33919 9.69824 9.13867 9.35645C8.93815 9.01009 8.66243 8.76855 8.31152 8.63184C7.96061 8.49512 7.43652 8.42904 6.73926 8.43359Z" fill="black"/>
</svg>
