<svg width="16" height="16" viewBox="0 0 16 16" fill="none" xmlns="http://www.w3.org/2000/svg">
<path d="M12.1006 3.73047L12.2031 5.9043H11.9434C11.8932 5.52148 11.8249 5.24805 11.7383 5.08398C11.597 4.81966 11.4079 4.62598 11.1709 4.50293C10.9385 4.37533 10.6309 4.31152 10.248 4.31152H8.94238V11.3936C8.94238 11.9632 9.00391 12.3187 9.12695 12.46C9.30013 12.6514 9.56673 12.7471 9.92676 12.7471H10.248V13H6.31738V12.7471H6.64551C7.03743 12.7471 7.31543 12.6286 7.47949 12.3916C7.57975 12.2458 7.62988 11.9131 7.62988 11.3936V4.31152H6.51562C6.08268 4.31152 5.77507 4.34342 5.59277 4.40723C5.35579 4.49382 5.15299 4.66016 4.98438 4.90625C4.81576 5.15234 4.71549 5.48503 4.68359 5.9043H4.42383L4.5332 3.73047H12.1006Z" fill="#4F4F4F"/>
<path d="M4 14.8662H12.5518V15.5498H4V14.8662Z" fill="#4F4F4F"/>
</svg>
