<svg width="16" height="16" viewBox="0 0 16 16" fill="none" xmlns="http://www.w3.org/2000/svg">
<path d="M8.45215 12.7471L8.37695 13H4.5625L4.6582 12.7471C5.04102 12.738 5.29395 12.7061 5.41699 12.6514C5.61751 12.5739 5.76562 12.4668 5.86133 12.3301C6.01172 12.1159 6.16667 11.7331 6.32617 11.1816L7.93945 5.58984C8.07617 5.125 8.14453 4.77409 8.14453 4.53711C8.14453 4.41862 8.11491 4.31836 8.05566 4.23633C7.99642 4.1543 7.90527 4.09277 7.78223 4.05176C7.66374 4.00618 7.42904 3.9834 7.07812 3.9834L7.16016 3.73047H10.7422L10.667 3.9834C10.3753 3.97884 10.1589 4.01074 10.0176 4.0791C9.8125 4.17025 9.65527 4.30013 9.5459 4.46875C9.44108 4.63737 9.30436 5.01107 9.13574 5.58984L7.5293 11.1816C7.38346 11.6966 7.31055 12.0247 7.31055 12.166C7.31055 12.2799 7.33789 12.3779 7.39258 12.46C7.45182 12.5374 7.54297 12.599 7.66602 12.6445C7.79362 12.6855 8.05566 12.7197 8.45215 12.7471Z" fill="black"/>
</svg>
