<svg
    xmlns="http://www.w3.org/2000/svg"
    width="18"
    height="18"
    fill="none"
    viewBox="0 0 18 18"
    fill="#fff"
>
    <g clipPath="url(#clip0)">
    <path d="M9 6.546A2.456 2.456 0 006.546 9c0 1.354 1.1 2.455 2.454 2.455s2.455-1.1 2.455-2.455c0-1.354-1.1-2.454-2.455-2.454z"></path>
    <path d="M9 2.864C4.91 2.864 1.415 5.408 0 9c1.415 3.592 4.91 6.136 9 6.136 4.095 0 7.585-2.544 9-6.136-1.415-3.592-4.905-6.136-9-6.136zM9 13.09A4.092 4.092 0 014.91 9 4.092 4.092 0 019 4.909 4.092 4.092 0 0113.09 9 4.092 4.092 0 019 13.09z"></path>
    </g>
    <defs>
    <clipPath id="clip0">
        <path d="M0 0H18V18H0z"></path>
    </clipPath>
    </defs>
</svg>