<svg width="25" height="25" viewBox="0 0 25 25" fill="none" xmlns="http://www.w3.org/2000/svg">
<path d="M22.5586 10.8398H19.043V2.92969C19.043 1.31426 17.7287 0 16.1133 0H2.92969C1.31426 0 0 1.31426 0 2.92969V16.1133C0 17.7287 1.31426 19.043 2.92969 19.043H10.8398V22.5586C10.8398 23.9048 11.9351 25 13.2812 25H22.5586C23.9048 25 25 23.9048 25 22.5586V13.2812C25 11.9351 23.9048 10.8398 22.5586 10.8398ZM10.8398 13.2812V17.0898H2.92969C2.39121 17.0898 1.95312 16.6518 1.95312 16.1133V2.92969C1.95312 2.39121 2.39121 1.95312 2.92969 1.95312H16.1133C16.6518 1.95312 17.0898 2.39121 17.0898 2.92969V10.8398H13.2812C11.9351 10.8398 10.8398 11.9351 10.8398 13.2812ZM23.0469 22.5586C23.0469 22.8278 22.8278 23.0469 22.5586 23.0469H13.2812C13.012 23.0469 12.793 22.8278 12.793 22.5586V13.2812C12.793 13.012 13.012 12.793 13.2812 12.793H22.5586C22.8278 12.793 23.0469 13.012 23.0469 13.2812V22.5586Z" fill="black"/>
</svg>
