<svg width="25" height="25" viewBox="0 0 25 25" fill="none" xmlns="http://www.w3.org/2000/svg">
<g clip-path="url(#clip0)">
<path d="M20.8295 9.18981C19.6741 4.5869 15.0061 1.79218 10.4032 2.94762C6.8061 3.8506 4.19422 6.95949 3.92511 10.6584C1.37105 11.0795 -0.358011 13.4914 0.0631831 16.0455C0.437605 18.3161 2.40507 19.979 4.70628 19.9698H8.6121V18.4075H4.70628C2.98059 18.4075 1.58162 17.0085 1.58162 15.2828C1.58162 13.5572 2.98059 12.1582 4.70628 12.1582C5.13773 12.1582 5.48744 11.8085 5.48744 11.377C5.48354 7.4942 8.62807 4.34337 12.5109 4.33951C15.872 4.33614 18.7654 6.71235 19.4156 10.01C19.4798 10.3392 19.747 10.5908 20.0796 10.6349C22.2152 10.939 23.6999 12.9168 23.3958 15.0524C23.1227 16.97 21.4854 18.3978 19.5484 18.4075H16.4237V19.9698H19.5484C22.5684 19.9607 25.0091 17.5051 25 14.4851C24.9923 11.9712 23.2716 9.78638 20.8295 9.18981Z" fill="black"/>
<path d="M11.9633 12.3844L8.83862 15.5091L9.94006 16.6105L11.7367 14.8216V22.313H13.2991V14.8216L15.0879 16.6105L16.1894 15.5091L13.0647 12.3844C12.76 12.0815 12.268 12.0815 11.9633 12.3844Z" fill="black"/>
</g>
<defs>
<clipPath id="clip0">
<rect width="25" height="25" fill="white"/>
</clipPath>
</defs>
</svg>
