<svg width="35" height="35" viewBox="0 0 35 35" fill="none" xmlns="http://www.w3.org/2000/svg">
<path d="M26.8054 5H8.19458C6.43306 5 5 6.43311 5 8.19463V26.8054C5 28.5669 6.43306 30 8.19458 30H26.8054C28.5669 30 30 28.5669 30 26.8054V8.19463C30 6.43311 28.5669 5 26.8054 5ZM28.5274 26.8054C28.5274 27.755 27.7549 28.5274 26.8054 28.5274H8.19458C7.24502 28.5274 6.47251 27.7549 6.47251 26.8054V24.1195L11.3189 19.9959C11.4958 19.8455 11.7538 19.844 11.9323 19.9923L14.9682 22.5132C15.2609 22.7562 15.6906 22.7363 15.9596 22.467L23.1729 15.2427C23.3033 15.1121 23.4553 15.0994 23.5346 15.1034C23.6137 15.1075 23.7639 15.1357 23.8802 15.279L28.5275 21.0012V26.8054H28.5274ZM28.5274 18.6653L25.0232 14.3505C24.6757 13.9226 24.1606 13.661 23.6101 13.6327C23.0599 13.6049 22.5204 13.812 22.1309 14.2021L15.3922 20.9512L12.8731 18.8595C12.1427 18.2529 11.0878 18.2592 10.3647 18.8745L6.47251 22.1861V8.19463C6.47251 7.24507 7.24502 6.47256 8.19458 6.47256H26.8054C27.755 6.47256 28.5274 7.24507 28.5274 8.19463V18.6653Z" fill="white"/>
<path d="M12.8698 8.07593C10.912 8.07593 9.31934 9.6687 9.31934 11.6264C9.31934 13.5841 10.9121 15.1768 12.8698 15.1768C14.8275 15.1768 16.4202 13.5841 16.4202 11.6264C16.4202 9.66865 14.8275 8.07593 12.8698 8.07593ZM12.8698 13.7043C11.724 13.7043 10.7918 12.7721 10.7918 11.6264C10.7918 10.4806 11.724 9.54844 12.8698 9.54844C14.0156 9.54844 14.9477 10.4806 14.9477 11.6264C14.9477 12.7721 14.0156 13.7043 12.8698 13.7043Z" fill="white"/>
</svg>
