<svg width="71" height="71" viewBox="0 0 71 71" fill="none" xmlns="http://www.w3.org/2000/svg">
<path d="M35.5 71C55.1061 71 71 55.1061 71 35.5C71 15.8939 55.1061 0 35.5 0C15.8939 0 0 15.8939 0 35.5C0 55.1061 15.8939 71 35.5 71Z" fill="#FFCA28"/>
<path d="M55.4244 28.8881C54.1996 28.8881 53.2056 27.8941 53.2056 26.6694C53.2056 24.2243 51.2176 22.2319 48.7681 22.2319C46.3186 22.2319 44.3306 24.2243 44.3306 26.6694C44.3306 27.8941 43.3366 28.8881 42.1119 28.8881C40.8871 28.8881 39.8931 27.8941 39.8931 26.6694C39.8931 21.7748 43.8736 17.7944 48.7681 17.7944C53.6627 17.7944 57.6431 21.7748 57.6431 26.6694C57.6431 27.8986 56.6491 28.8881 55.4244 28.8881Z" fill="#6D4C41"/>
<path d="M28.7994 28.8881C27.5746 28.8881 26.5806 27.8941 26.5806 26.6694C26.5806 24.2243 24.5882 22.2319 22.1431 22.2319C19.6981 22.2319 17.7056 24.2243 17.7056 26.6694C17.7056 27.8941 16.7116 28.8881 15.4869 28.8881C14.2621 28.8881 13.2681 27.8941 13.2681 26.6694C13.2681 21.7748 17.2486 17.7944 22.1431 17.7944C27.0377 17.7944 31.0181 21.7748 31.0181 26.6694C31.0181 27.8986 30.0241 28.8881 28.7994 28.8881Z" fill="#6D4C41"/>
<path d="M60.6961 40.8649C60.2746 40.3102 59.6222 39.9819 58.93 39.9819H11.9812C11.2846 39.9819 10.6322 40.3058 10.2151 40.8605C9.78912 41.4196 9.656 42.1341 9.84237 42.8041C13.0507 54.2041 23.5853 62.1694 35.4512 62.1694C47.3171 62.1694 57.8517 54.2041 61.06 42.8041C61.2508 42.1341 61.1177 41.4196 60.6961 40.8649Z" fill="#FAFAFA"/>
</svg>
