<svg width="503" height="85" viewBox="0 0 503 85" fill="none" xmlns="http://www.w3.org/2000/svg">
<path d="M19.7737 20.5L31.4612 53.5L43.0862 20.5H55.3987V66H45.9925V53.5625L46.93 32.0938L34.6487 66H28.2112L15.9612 32.125L16.8987 53.5625V66H7.52374V20.5H19.7737ZM79.835 66.625C74.8767 66.625 70.835 65.1042 67.71 62.0625C64.6058 59.0208 63.0537 54.9688 63.0537 49.9062V49.0312C63.0537 45.6354 63.71 42.6042 65.0225 39.9375C66.335 37.25 68.1892 35.1875 70.585 33.75C73.0017 32.2917 75.7517 31.5625 78.835 31.5625C83.46 31.5625 87.0954 33.0208 89.7412 35.9375C92.4079 38.8542 93.7412 42.9896 93.7412 48.3438V52.0312H72.21C72.5017 54.2396 73.3767 56.0104 74.835 57.3438C76.3142 58.6771 78.1787 59.3438 80.4287 59.3438C83.9079 59.3438 86.6267 58.0833 88.585 55.5625L93.0225 60.5312C91.6683 62.4479 89.835 63.9479 87.5225 65.0312C85.21 66.0938 82.6475 66.625 79.835 66.625ZM78.8037 38.875C77.0121 38.875 75.5537 39.4792 74.4287 40.6875C73.3246 41.8958 72.6162 43.625 72.3037 45.875H84.8662V45.1562C84.8246 43.1562 84.2829 41.6146 83.2412 40.5312C82.1996 39.4271 80.7204 38.875 78.8037 38.875ZM108.646 32.1875L108.927 35.9688C111.323 33.0312 114.563 31.5625 118.646 31.5625C123 31.5625 125.99 33.2812 127.615 36.7188C129.99 33.2812 133.375 31.5625 137.771 31.5625C141.438 31.5625 144.167 32.6354 145.959 34.7812C147.75 36.9062 148.646 40.1146 148.646 44.4062V66H139.584V44.4375C139.584 42.5208 139.209 41.125 138.459 40.25C137.709 39.3542 136.386 38.9062 134.49 38.9062C131.782 38.9062 129.907 40.1979 128.865 42.7812L128.896 66H119.865V44.4688C119.865 42.5104 119.48 41.0938 118.709 40.2188C117.938 39.3438 116.625 38.9062 114.771 38.9062C112.209 38.9062 110.355 39.9688 109.209 42.0938V66H100.177V32.1875H108.646ZM172.457 66.625C167.499 66.625 163.457 65.1042 160.332 62.0625C157.228 59.0208 155.676 54.9688 155.676 49.9062V49.0312C155.676 45.6354 156.332 42.6042 157.645 39.9375C158.957 37.25 160.812 35.1875 163.207 33.75C165.624 32.2917 168.374 31.5625 171.457 31.5625C176.082 31.5625 179.718 33.0208 182.364 35.9375C185.03 38.8542 186.364 42.9896 186.364 48.3438V52.0312H164.832C165.124 54.2396 165.999 56.0104 167.457 57.3438C168.937 58.6771 170.801 59.3438 173.051 59.3438C176.53 59.3438 179.249 58.0833 181.207 55.5625L185.645 60.5312C184.291 62.4479 182.457 63.9479 180.145 65.0312C177.832 66.0938 175.27 66.625 172.457 66.625ZM171.426 38.875C169.635 38.875 168.176 39.4792 167.051 40.6875C165.947 41.8958 165.239 43.625 164.926 45.875H177.489V45.1562C177.447 43.1562 176.905 41.6146 175.864 40.5312C174.822 39.4271 173.343 38.875 171.426 38.875ZM246.611 60.25C244.924 62.2708 242.538 63.8438 239.455 64.9688C236.372 66.0729 232.955 66.625 229.205 66.625C225.267 66.625 221.809 65.7708 218.83 64.0625C215.872 62.3333 213.58 59.8333 211.955 56.5625C210.351 53.2917 209.528 49.4479 209.486 45.0312V41.9375C209.486 37.3958 210.247 33.4688 211.767 30.1562C213.309 26.8229 215.517 24.2812 218.392 22.5312C221.288 20.7604 224.674 19.875 228.549 19.875C233.945 19.875 238.163 21.1667 241.205 23.75C244.247 26.3125 246.049 30.0521 246.611 34.9688H237.486C237.07 32.3646 236.142 30.4583 234.705 29.25C233.288 28.0417 231.33 27.4375 228.83 27.4375C225.642 27.4375 223.215 28.6354 221.549 31.0312C219.882 33.4271 219.038 36.9896 219.017 41.7188V44.625C219.017 49.3958 219.924 53 221.736 55.4375C223.549 57.875 226.205 59.0938 229.705 59.0938C233.226 59.0938 235.736 58.3438 237.236 56.8438V49H228.705V42.0938H246.611V60.25ZM270.485 66.625C265.527 66.625 261.485 65.1042 258.36 62.0625C255.256 59.0208 253.704 54.9688 253.704 49.9062V49.0312C253.704 45.6354 254.36 42.6042 255.672 39.9375C256.985 37.25 258.839 35.1875 261.235 33.75C263.652 32.2917 266.402 31.5625 269.485 31.5625C274.11 31.5625 277.745 33.0208 280.391 35.9375C283.058 38.8542 284.391 42.9896 284.391 48.3438V52.0312H262.86C263.152 54.2396 264.027 56.0104 265.485 57.3438C266.964 58.6771 268.829 59.3438 271.079 59.3438C274.558 59.3438 277.277 58.0833 279.235 55.5625L283.672 60.5312C282.318 62.4479 280.485 63.9479 278.172 65.0312C275.86 66.0938 273.297 66.625 270.485 66.625ZM269.454 38.875C267.662 38.875 266.204 39.4792 265.079 40.6875C263.975 41.8958 263.266 43.625 262.954 45.875H275.516V45.1562C275.475 43.1562 274.933 41.6146 273.891 40.5312C272.85 39.4271 271.37 38.875 269.454 38.875ZM299.14 32.1875L299.421 36.0938C301.838 33.0729 305.077 31.5625 309.14 31.5625C312.723 31.5625 315.39 32.6146 317.14 34.7188C318.89 36.8229 319.786 39.9688 319.827 44.1562V66H310.796V44.375C310.796 42.4583 310.38 41.0729 309.546 40.2188C308.713 39.3438 307.327 38.9062 305.39 38.9062C302.848 38.9062 300.942 39.9896 299.671 42.1562V66H290.64V32.1875H299.14ZM343.545 66.625C338.587 66.625 334.545 65.1042 331.42 62.0625C328.316 59.0208 326.764 54.9688 326.764 49.9062V49.0312C326.764 45.6354 327.42 42.6042 328.732 39.9375C330.045 37.25 331.899 35.1875 334.295 33.75C336.712 32.2917 339.462 31.5625 342.545 31.5625C347.17 31.5625 350.805 33.0208 353.451 35.9375C356.118 38.8542 357.451 42.9896 357.451 48.3438V52.0312H335.92C336.212 54.2396 337.087 56.0104 338.545 57.3438C340.024 58.6771 341.889 59.3438 344.139 59.3438C347.618 59.3438 350.337 58.0833 352.295 55.5625L356.732 60.5312C355.378 62.4479 353.545 63.9479 351.232 65.0312C348.92 66.0938 346.357 66.625 343.545 66.625ZM342.514 38.875C340.722 38.875 339.264 39.4792 338.139 40.6875C337.035 41.8958 336.326 43.625 336.014 45.875H348.576V45.1562C348.535 43.1562 347.993 41.6146 346.951 40.5312C345.91 39.4271 344.43 38.875 342.514 38.875ZM382.887 40.6562C381.658 40.4896 380.575 40.4062 379.637 40.4062C376.221 40.4062 373.981 41.5625 372.919 43.875V66H363.887V32.1875H372.419L372.669 36.2188C374.481 33.1146 376.992 31.5625 380.2 31.5625C381.2 31.5625 382.137 31.6979 383.012 31.9688L382.887 40.6562ZM407.199 66C406.782 65.1875 406.48 64.1771 406.292 62.9688C404.105 65.4062 401.261 66.625 397.761 66.625C394.449 66.625 391.699 65.6667 389.511 63.75C387.345 61.8333 386.261 59.4167 386.261 56.5C386.261 52.9167 387.584 50.1667 390.23 48.25C392.897 46.3333 396.74 45.3646 401.761 45.3438H405.917V43.4062C405.917 41.8438 405.511 40.5938 404.699 39.6562C403.907 38.7188 402.647 38.25 400.917 38.25C399.397 38.25 398.199 38.6146 397.324 39.3438C396.47 40.0729 396.042 41.0729 396.042 42.3438H387.011C387.011 40.3854 387.615 38.5729 388.824 36.9062C390.032 35.2396 391.74 33.9375 393.949 33C396.157 32.0417 398.636 31.5625 401.386 31.5625C405.553 31.5625 408.855 32.6146 411.292 34.7188C413.751 36.8021 414.98 39.7396 414.98 43.5312V58.1875C415.001 61.3958 415.449 63.8229 416.324 65.4688V66H407.199ZM399.73 59.7188C401.063 59.7188 402.292 59.4271 403.417 58.8438C404.542 58.2396 405.376 57.4375 405.917 56.4375V50.625H402.542C398.022 50.625 395.615 52.1875 395.324 55.3125L395.292 55.8438C395.292 56.9688 395.688 57.8958 396.48 58.625C397.272 59.3542 398.355 59.7188 399.73 59.7188ZM434.01 23.875V32.1875H439.791V38.8125H434.01V55.6875C434.01 56.9375 434.25 57.8333 434.729 58.375C435.208 58.9167 436.125 59.1875 437.479 59.1875C438.479 59.1875 439.364 59.1146 440.135 58.9688V65.8125C438.364 66.3542 436.541 66.625 434.666 66.625C428.333 66.625 425.104 63.4271 424.979 57.0312V38.8125H420.041V32.1875H424.979V23.875H434.01ZM443.759 48.7812C443.759 45.4271 444.405 42.4375 445.696 39.8125C446.988 37.1875 448.842 35.1562 451.259 33.7188C453.696 32.2812 456.519 31.5625 459.727 31.5625C464.29 31.5625 468.009 32.9583 470.884 35.75C473.78 38.5417 475.394 42.3333 475.727 47.125L475.79 49.4375C475.79 54.625 474.342 58.7917 471.446 61.9375C468.55 65.0625 464.665 66.625 459.79 66.625C454.915 66.625 451.019 65.0625 448.102 61.9375C445.207 58.8125 443.759 54.5625 443.759 49.1875V48.7812ZM452.79 49.4375C452.79 52.6458 453.394 55.1042 454.602 56.8125C455.811 58.5 457.54 59.3438 459.79 59.3438C461.977 59.3438 463.686 58.5104 464.915 56.8438C466.144 55.1562 466.759 52.4688 466.759 48.7812C466.759 45.6354 466.144 43.1979 464.915 41.4688C463.686 39.7396 461.957 38.875 459.727 38.875C457.519 38.875 455.811 39.7396 454.602 41.4688C453.394 43.1771 452.79 45.8333 452.79 49.4375ZM501.633 40.6562C500.403 40.4896 499.32 40.4062 498.383 40.4062C494.966 40.4062 492.726 41.5625 491.664 43.875V66H482.633V32.1875H491.164L491.414 36.2188C493.226 33.1146 495.737 31.5625 498.945 31.5625C499.945 31.5625 500.883 31.6979 501.758 31.9688L501.633 40.6562Z" fill="#5096FF"/>
<path d="M18.7737 19.5L30.4612 52.5L42.0862 19.5H54.3987V65H44.9925V52.5625L45.93 31.0938L33.6487 65H27.2112L14.9612 31.125L15.8987 52.5625V65H6.52374V19.5H18.7737ZM78.835 65.625C73.8767 65.625 69.835 64.1042 66.71 61.0625C63.6058 58.0208 62.0537 53.9688 62.0537 48.9062V48.0312C62.0537 44.6354 62.71 41.6042 64.0225 38.9375C65.335 36.25 67.1892 34.1875 69.585 32.75C72.0017 31.2917 74.7517 30.5625 77.835 30.5625C82.46 30.5625 86.0954 32.0208 88.7412 34.9375C91.4079 37.8542 92.7412 41.9896 92.7412 47.3438V51.0312H71.21C71.5017 53.2396 72.3767 55.0104 73.835 56.3438C75.3142 57.6771 77.1787 58.3438 79.4287 58.3438C82.9079 58.3438 85.6267 57.0833 87.585 54.5625L92.0225 59.5312C90.6683 61.4479 88.835 62.9479 86.5225 64.0312C84.21 65.0938 81.6475 65.625 78.835 65.625ZM77.8037 37.875C76.0121 37.875 74.5537 38.4792 73.4287 39.6875C72.3246 40.8958 71.6162 42.625 71.3037 44.875H83.8662V44.1562C83.8246 42.1562 83.2829 40.6146 82.2412 39.5312C81.1996 38.4271 79.7204 37.875 77.8037 37.875ZM107.646 31.1875L107.927 34.9688C110.323 32.0312 113.563 30.5625 117.646 30.5625C122 30.5625 124.99 32.2812 126.615 35.7188C128.99 32.2812 132.375 30.5625 136.771 30.5625C140.438 30.5625 143.167 31.6354 144.959 33.7812C146.75 35.9062 147.646 39.1146 147.646 43.4062V65H138.584V43.4375C138.584 41.5208 138.209 40.125 137.459 39.25C136.709 38.3542 135.386 37.9062 133.49 37.9062C130.782 37.9062 128.907 39.1979 127.865 41.7812L127.896 65H118.865V43.4688C118.865 41.5104 118.48 40.0938 117.709 39.2188C116.938 38.3438 115.625 37.9062 113.771 37.9062C111.209 37.9062 109.355 38.9688 108.209 41.0938V65H99.1775V31.1875H107.646ZM171.457 65.625C166.499 65.625 162.457 64.1042 159.332 61.0625C156.228 58.0208 154.676 53.9688 154.676 48.9062V48.0312C154.676 44.6354 155.332 41.6042 156.645 38.9375C157.957 36.25 159.812 34.1875 162.207 32.75C164.624 31.2917 167.374 30.5625 170.457 30.5625C175.082 30.5625 178.718 32.0208 181.364 34.9375C184.03 37.8542 185.364 41.9896 185.364 47.3438V51.0312H163.832C164.124 53.2396 164.999 55.0104 166.457 56.3438C167.937 57.6771 169.801 58.3438 172.051 58.3438C175.53 58.3438 178.249 57.0833 180.207 54.5625L184.645 59.5312C183.291 61.4479 181.457 62.9479 179.145 64.0312C176.832 65.0938 174.27 65.625 171.457 65.625ZM170.426 37.875C168.635 37.875 167.176 38.4792 166.051 39.6875C164.947 40.8958 164.239 42.625 163.926 44.875H176.489V44.1562C176.447 42.1562 175.905 40.6146 174.864 39.5312C173.822 38.4271 172.343 37.875 170.426 37.875ZM245.611 59.25C243.924 61.2708 241.538 62.8438 238.455 63.9688C235.372 65.0729 231.955 65.625 228.205 65.625C224.267 65.625 220.809 64.7708 217.83 63.0625C214.872 61.3333 212.58 58.8333 210.955 55.5625C209.351 52.2917 208.528 48.4479 208.486 44.0312V40.9375C208.486 36.3958 209.247 32.4688 210.767 29.1562C212.309 25.8229 214.517 23.2812 217.392 21.5312C220.288 19.7604 223.674 18.875 227.549 18.875C232.945 18.875 237.163 20.1667 240.205 22.75C243.247 25.3125 245.049 29.0521 245.611 33.9688H236.486C236.07 31.3646 235.142 29.4583 233.705 28.25C232.288 27.0417 230.33 26.4375 227.83 26.4375C224.642 26.4375 222.215 27.6354 220.549 30.0312C218.882 32.4271 218.038 35.9896 218.017 40.7188V43.625C218.017 48.3958 218.924 52 220.736 54.4375C222.549 56.875 225.205 58.0938 228.705 58.0938C232.226 58.0938 234.736 57.3438 236.236 55.8438V48H227.705V41.0938H245.611V59.25ZM269.485 65.625C264.527 65.625 260.485 64.1042 257.36 61.0625C254.256 58.0208 252.704 53.9688 252.704 48.9062V48.0312C252.704 44.6354 253.36 41.6042 254.672 38.9375C255.985 36.25 257.839 34.1875 260.235 32.75C262.652 31.2917 265.402 30.5625 268.485 30.5625C273.11 30.5625 276.745 32.0208 279.391 34.9375C282.058 37.8542 283.391 41.9896 283.391 47.3438V51.0312H261.86C262.152 53.2396 263.027 55.0104 264.485 56.3438C265.964 57.6771 267.829 58.3438 270.079 58.3438C273.558 58.3438 276.277 57.0833 278.235 54.5625L282.672 59.5312C281.318 61.4479 279.485 62.9479 277.172 64.0312C274.86 65.0938 272.297 65.625 269.485 65.625ZM268.454 37.875C266.662 37.875 265.204 38.4792 264.079 39.6875C262.975 40.8958 262.266 42.625 261.954 44.875H274.516V44.1562C274.475 42.1562 273.933 40.6146 272.891 39.5312C271.85 38.4271 270.37 37.875 268.454 37.875ZM298.14 31.1875L298.421 35.0938C300.838 32.0729 304.077 30.5625 308.14 30.5625C311.723 30.5625 314.39 31.6146 316.14 33.7188C317.89 35.8229 318.786 38.9688 318.827 43.1562V65H309.796V43.375C309.796 41.4583 309.38 40.0729 308.546 39.2188C307.713 38.3438 306.327 37.9062 304.39 37.9062C301.848 37.9062 299.942 38.9896 298.671 41.1562V65H289.64V31.1875H298.14ZM342.545 65.625C337.587 65.625 333.545 64.1042 330.42 61.0625C327.316 58.0208 325.764 53.9688 325.764 48.9062V48.0312C325.764 44.6354 326.42 41.6042 327.732 38.9375C329.045 36.25 330.899 34.1875 333.295 32.75C335.712 31.2917 338.462 30.5625 341.545 30.5625C346.17 30.5625 349.805 32.0208 352.451 34.9375C355.118 37.8542 356.451 41.9896 356.451 47.3438V51.0312H334.92C335.212 53.2396 336.087 55.0104 337.545 56.3438C339.024 57.6771 340.889 58.3438 343.139 58.3438C346.618 58.3438 349.337 57.0833 351.295 54.5625L355.732 59.5312C354.378 61.4479 352.545 62.9479 350.232 64.0312C347.92 65.0938 345.357 65.625 342.545 65.625ZM341.514 37.875C339.722 37.875 338.264 38.4792 337.139 39.6875C336.035 40.8958 335.326 42.625 335.014 44.875H347.576V44.1562C347.535 42.1562 346.993 40.6146 345.951 39.5312C344.91 38.4271 343.43 37.875 341.514 37.875ZM381.887 39.6562C380.658 39.4896 379.575 39.4062 378.637 39.4062C375.221 39.4062 372.981 40.5625 371.919 42.875V65H362.887V31.1875H371.419L371.669 35.2188C373.481 32.1146 375.992 30.5625 379.2 30.5625C380.2 30.5625 381.137 30.6979 382.012 30.9688L381.887 39.6562ZM406.199 65C405.782 64.1875 405.48 63.1771 405.292 61.9688C403.105 64.4062 400.261 65.625 396.761 65.625C393.449 65.625 390.699 64.6667 388.511 62.75C386.345 60.8333 385.261 58.4167 385.261 55.5C385.261 51.9167 386.584 49.1667 389.23 47.25C391.897 45.3333 395.74 44.3646 400.761 44.3438H404.917V42.4062C404.917 40.8438 404.511 39.5938 403.699 38.6562C402.907 37.7188 401.647 37.25 399.917 37.25C398.397 37.25 397.199 37.6146 396.324 38.3438C395.47 39.0729 395.042 40.0729 395.042 41.3438H386.011C386.011 39.3854 386.615 37.5729 387.824 35.9062C389.032 34.2396 390.74 32.9375 392.949 32C395.157 31.0417 397.636 30.5625 400.386 30.5625C404.553 30.5625 407.855 31.6146 410.292 33.7188C412.751 35.8021 413.98 38.7396 413.98 42.5312V57.1875C414.001 60.3958 414.449 62.8229 415.324 64.4688V65H406.199ZM398.73 58.7188C400.063 58.7188 401.292 58.4271 402.417 57.8438C403.542 57.2396 404.376 56.4375 404.917 55.4375V49.625H401.542C397.022 49.625 394.615 51.1875 394.324 54.3125L394.292 54.8438C394.292 55.9688 394.688 56.8958 395.48 57.625C396.272 58.3542 397.355 58.7188 398.73 58.7188ZM433.01 22.875V31.1875H438.791V37.8125H433.01V54.6875C433.01 55.9375 433.25 56.8333 433.729 57.375C434.208 57.9167 435.125 58.1875 436.479 58.1875C437.479 58.1875 438.364 58.1146 439.135 57.9688V64.8125C437.364 65.3542 435.541 65.625 433.666 65.625C427.333 65.625 424.104 62.4271 423.979 56.0312V37.8125H419.041V31.1875H423.979V22.875H433.01ZM442.759 47.7812C442.759 44.4271 443.405 41.4375 444.696 38.8125C445.988 36.1875 447.842 34.1562 450.259 32.7188C452.696 31.2812 455.519 30.5625 458.727 30.5625C463.29 30.5625 467.009 31.9583 469.884 34.75C472.78 37.5417 474.394 41.3333 474.727 46.125L474.79 48.4375C474.79 53.625 473.342 57.7917 470.446 60.9375C467.55 64.0625 463.665 65.625 458.79 65.625C453.915 65.625 450.019 64.0625 447.102 60.9375C444.207 57.8125 442.759 53.5625 442.759 48.1875V47.7812ZM451.79 48.4375C451.79 51.6458 452.394 54.1042 453.602 55.8125C454.811 57.5 456.54 58.3438 458.79 58.3438C460.977 58.3438 462.686 57.5104 463.915 55.8438C465.144 54.1562 465.759 51.4688 465.759 47.7812C465.759 44.6354 465.144 42.1979 463.915 40.4688C462.686 38.7396 460.957 37.875 458.727 37.875C456.519 37.875 454.811 38.7396 453.602 40.4688C452.394 42.1771 451.79 44.8333 451.79 48.4375ZM500.633 39.6562C499.403 39.4896 498.32 39.4062 497.383 39.4062C493.966 39.4062 491.726 40.5625 490.664 42.875V65H481.633V31.1875H490.164L490.414 35.2188C492.226 32.1146 494.737 30.5625 497.945 30.5625C498.945 30.5625 499.883 30.6979 500.758 30.9688L500.633 39.6562Z" fill="#5096FF"/>
<path d="M17.7737 18.5L29.4612 51.5L41.0862 18.5H53.3987V64H43.9925V51.5625L44.93 30.0938L32.6487 64H26.2112L13.9612 30.125L14.8987 51.5625V64H5.52374V18.5H17.7737ZM77.835 64.625C72.8767 64.625 68.835 63.1042 65.71 60.0625C62.6058 57.0208 61.0537 52.9688 61.0537 47.9062V47.0312C61.0537 43.6354 61.71 40.6042 63.0225 37.9375C64.335 35.25 66.1892 33.1875 68.585 31.75C71.0017 30.2917 73.7517 29.5625 76.835 29.5625C81.46 29.5625 85.0954 31.0208 87.7412 33.9375C90.4079 36.8542 91.7412 40.9896 91.7412 46.3438V50.0312H70.21C70.5017 52.2396 71.3767 54.0104 72.835 55.3438C74.3142 56.6771 76.1787 57.3438 78.4287 57.3438C81.9079 57.3438 84.6267 56.0833 86.585 53.5625L91.0225 58.5312C89.6683 60.4479 87.835 61.9479 85.5225 63.0312C83.21 64.0938 80.6475 64.625 77.835 64.625ZM76.8037 36.875C75.0121 36.875 73.5537 37.4792 72.4287 38.6875C71.3246 39.8958 70.6162 41.625 70.3037 43.875H82.8662V43.1562C82.8246 41.1562 82.2829 39.6146 81.2412 38.5312C80.1996 37.4271 78.7204 36.875 76.8037 36.875ZM106.646 30.1875L106.927 33.9688C109.323 31.0312 112.563 29.5625 116.646 29.5625C121 29.5625 123.99 31.2812 125.615 34.7188C127.99 31.2812 131.375 29.5625 135.771 29.5625C139.438 29.5625 142.167 30.6354 143.959 32.7812C145.75 34.9062 146.646 38.1146 146.646 42.4062V64H137.584V42.4375C137.584 40.5208 137.209 39.125 136.459 38.25C135.709 37.3542 134.386 36.9062 132.49 36.9062C129.782 36.9062 127.907 38.1979 126.865 40.7812L126.896 64H117.865V42.4688C117.865 40.5104 117.48 39.0938 116.709 38.2188C115.938 37.3438 114.625 36.9062 112.771 36.9062C110.209 36.9062 108.355 37.9688 107.209 40.0938V64H98.1775V30.1875H106.646ZM170.457 64.625C165.499 64.625 161.457 63.1042 158.332 60.0625C155.228 57.0208 153.676 52.9688 153.676 47.9062V47.0312C153.676 43.6354 154.332 40.6042 155.645 37.9375C156.957 35.25 158.812 33.1875 161.207 31.75C163.624 30.2917 166.374 29.5625 169.457 29.5625C174.082 29.5625 177.718 31.0208 180.364 33.9375C183.03 36.8542 184.364 40.9896 184.364 46.3438V50.0312H162.832C163.124 52.2396 163.999 54.0104 165.457 55.3438C166.937 56.6771 168.801 57.3438 171.051 57.3438C174.53 57.3438 177.249 56.0833 179.207 53.5625L183.645 58.5312C182.291 60.4479 180.457 61.9479 178.145 63.0312C175.832 64.0938 173.27 64.625 170.457 64.625ZM169.426 36.875C167.635 36.875 166.176 37.4792 165.051 38.6875C163.947 39.8958 163.239 41.625 162.926 43.875H175.489V43.1562C175.447 41.1562 174.905 39.6146 173.864 38.5312C172.822 37.4271 171.343 36.875 169.426 36.875ZM244.611 58.25C242.924 60.2708 240.538 61.8438 237.455 62.9688C234.372 64.0729 230.955 64.625 227.205 64.625C223.267 64.625 219.809 63.7708 216.83 62.0625C213.872 60.3333 211.58 57.8333 209.955 54.5625C208.351 51.2917 207.528 47.4479 207.486 43.0312V39.9375C207.486 35.3958 208.247 31.4688 209.767 28.1562C211.309 24.8229 213.517 22.2812 216.392 20.5312C219.288 18.7604 222.674 17.875 226.549 17.875C231.945 17.875 236.163 19.1667 239.205 21.75C242.247 24.3125 244.049 28.0521 244.611 32.9688H235.486C235.07 30.3646 234.142 28.4583 232.705 27.25C231.288 26.0417 229.33 25.4375 226.83 25.4375C223.642 25.4375 221.215 26.6354 219.549 29.0312C217.882 31.4271 217.038 34.9896 217.017 39.7188V42.625C217.017 47.3958 217.924 51 219.736 53.4375C221.549 55.875 224.205 57.0938 227.705 57.0938C231.226 57.0938 233.736 56.3438 235.236 54.8438V47H226.705V40.0938H244.611V58.25ZM268.485 64.625C263.527 64.625 259.485 63.1042 256.36 60.0625C253.256 57.0208 251.704 52.9688 251.704 47.9062V47.0312C251.704 43.6354 252.36 40.6042 253.672 37.9375C254.985 35.25 256.839 33.1875 259.235 31.75C261.652 30.2917 264.402 29.5625 267.485 29.5625C272.11 29.5625 275.745 31.0208 278.391 33.9375C281.058 36.8542 282.391 40.9896 282.391 46.3438V50.0312H260.86C261.152 52.2396 262.027 54.0104 263.485 55.3438C264.964 56.6771 266.829 57.3438 269.079 57.3438C272.558 57.3438 275.277 56.0833 277.235 53.5625L281.672 58.5312C280.318 60.4479 278.485 61.9479 276.172 63.0312C273.86 64.0938 271.297 64.625 268.485 64.625ZM267.454 36.875C265.662 36.875 264.204 37.4792 263.079 38.6875C261.975 39.8958 261.266 41.625 260.954 43.875H273.516V43.1562C273.475 41.1562 272.933 39.6146 271.891 38.5312C270.85 37.4271 269.37 36.875 267.454 36.875ZM297.14 30.1875L297.421 34.0938C299.838 31.0729 303.077 29.5625 307.14 29.5625C310.723 29.5625 313.39 30.6146 315.14 32.7188C316.89 34.8229 317.786 37.9688 317.827 42.1562V64H308.796V42.375C308.796 40.4583 308.38 39.0729 307.546 38.2188C306.713 37.3438 305.327 36.9062 303.39 36.9062C300.848 36.9062 298.942 37.9896 297.671 40.1562V64H288.64V30.1875H297.14ZM341.545 64.625C336.587 64.625 332.545 63.1042 329.42 60.0625C326.316 57.0208 324.764 52.9688 324.764 47.9062V47.0312C324.764 43.6354 325.42 40.6042 326.732 37.9375C328.045 35.25 329.899 33.1875 332.295 31.75C334.712 30.2917 337.462 29.5625 340.545 29.5625C345.17 29.5625 348.805 31.0208 351.451 33.9375C354.118 36.8542 355.451 40.9896 355.451 46.3438V50.0312H333.92C334.212 52.2396 335.087 54.0104 336.545 55.3438C338.024 56.6771 339.889 57.3438 342.139 57.3438C345.618 57.3438 348.337 56.0833 350.295 53.5625L354.732 58.5312C353.378 60.4479 351.545 61.9479 349.232 63.0312C346.92 64.0938 344.357 64.625 341.545 64.625ZM340.514 36.875C338.722 36.875 337.264 37.4792 336.139 38.6875C335.035 39.8958 334.326 41.625 334.014 43.875H346.576V43.1562C346.535 41.1562 345.993 39.6146 344.951 38.5312C343.91 37.4271 342.43 36.875 340.514 36.875ZM380.887 38.6562C379.658 38.4896 378.575 38.4062 377.637 38.4062C374.221 38.4062 371.981 39.5625 370.919 41.875V64H361.887V30.1875H370.419L370.669 34.2188C372.481 31.1146 374.992 29.5625 378.2 29.5625C379.2 29.5625 380.137 29.6979 381.012 29.9688L380.887 38.6562ZM405.199 64C404.782 63.1875 404.48 62.1771 404.292 60.9688C402.105 63.4062 399.261 64.625 395.761 64.625C392.449 64.625 389.699 63.6667 387.511 61.75C385.345 59.8333 384.261 57.4167 384.261 54.5C384.261 50.9167 385.584 48.1667 388.23 46.25C390.897 44.3333 394.74 43.3646 399.761 43.3438H403.917V41.4062C403.917 39.8438 403.511 38.5938 402.699 37.6562C401.907 36.7188 400.647 36.25 398.917 36.25C397.397 36.25 396.199 36.6146 395.324 37.3438C394.47 38.0729 394.042 39.0729 394.042 40.3438H385.011C385.011 38.3854 385.615 36.5729 386.824 34.9062C388.032 33.2396 389.74 31.9375 391.949 31C394.157 30.0417 396.636 29.5625 399.386 29.5625C403.553 29.5625 406.855 30.6146 409.292 32.7188C411.751 34.8021 412.98 37.7396 412.98 41.5312V56.1875C413.001 59.3958 413.449 61.8229 414.324 63.4688V64H405.199ZM397.73 57.7188C399.063 57.7188 400.292 57.4271 401.417 56.8438C402.542 56.2396 403.376 55.4375 403.917 54.4375V48.625H400.542C396.022 48.625 393.615 50.1875 393.324 53.3125L393.292 53.8438C393.292 54.9688 393.688 55.8958 394.48 56.625C395.272 57.3542 396.355 57.7188 397.73 57.7188ZM432.01 21.875V30.1875H437.791V36.8125H432.01V53.6875C432.01 54.9375 432.25 55.8333 432.729 56.375C433.208 56.9167 434.125 57.1875 435.479 57.1875C436.479 57.1875 437.364 57.1146 438.135 56.9688V63.8125C436.364 64.3542 434.541 64.625 432.666 64.625C426.333 64.625 423.104 61.4271 422.979 55.0312V36.8125H418.041V30.1875H422.979V21.875H432.01ZM441.759 46.7812C441.759 43.4271 442.405 40.4375 443.696 37.8125C444.988 35.1875 446.842 33.1562 449.259 31.7188C451.696 30.2812 454.519 29.5625 457.727 29.5625C462.29 29.5625 466.009 30.9583 468.884 33.75C471.78 36.5417 473.394 40.3333 473.727 45.125L473.79 47.4375C473.79 52.625 472.342 56.7917 469.446 59.9375C466.55 63.0625 462.665 64.625 457.79 64.625C452.915 64.625 449.019 63.0625 446.102 59.9375C443.207 56.8125 441.759 52.5625 441.759 47.1875V46.7812ZM450.79 47.4375C450.79 50.6458 451.394 53.1042 452.602 54.8125C453.811 56.5 455.54 57.3438 457.79 57.3438C459.977 57.3438 461.686 56.5104 462.915 54.8438C464.144 53.1562 464.759 50.4688 464.759 46.7812C464.759 43.6354 464.144 41.1979 462.915 39.4688C461.686 37.7396 459.957 36.875 457.727 36.875C455.519 36.875 453.811 37.7396 452.602 39.4688C451.394 41.1771 450.79 43.8333 450.79 47.4375ZM499.633 38.6562C498.403 38.4896 497.32 38.4062 496.383 38.4062C492.966 38.4062 490.726 39.5625 489.664 41.875V64H480.633V30.1875H489.164L489.414 34.2188C491.226 31.1146 493.737 29.5625 496.945 29.5625C497.945 29.5625 498.883 29.6979 499.758 29.9688L499.633 38.6562Z" fill="#5096FF"/>
<path d="M16.7737 17.5L28.4612 50.5L40.0862 17.5H52.3987V63H42.9925V50.5625L43.93 29.0938L31.6487 63H25.2112L12.9612 29.125L13.8987 50.5625V63H4.52374V17.5H16.7737ZM76.835 63.625C71.8767 63.625 67.835 62.1042 64.71 59.0625C61.6058 56.0208 60.0537 51.9688 60.0537 46.9062V46.0312C60.0537 42.6354 60.71 39.6042 62.0225 36.9375C63.335 34.25 65.1892 32.1875 67.585 30.75C70.0017 29.2917 72.7517 28.5625 75.835 28.5625C80.46 28.5625 84.0954 30.0208 86.7412 32.9375C89.4079 35.8542 90.7412 39.9896 90.7412 45.3438V49.0312H69.21C69.5017 51.2396 70.3767 53.0104 71.835 54.3438C73.3142 55.6771 75.1787 56.3438 77.4287 56.3438C80.9079 56.3438 83.6267 55.0833 85.585 52.5625L90.0225 57.5312C88.6683 59.4479 86.835 60.9479 84.5225 62.0312C82.21 63.0938 79.6475 63.625 76.835 63.625ZM75.8037 35.875C74.0121 35.875 72.5537 36.4792 71.4287 37.6875C70.3246 38.8958 69.6162 40.625 69.3037 42.875H81.8662V42.1562C81.8246 40.1562 81.2829 38.6146 80.2412 37.5312C79.1996 36.4271 77.7204 35.875 75.8037 35.875ZM105.646 29.1875L105.927 32.9688C108.323 30.0312 111.563 28.5625 115.646 28.5625C120 28.5625 122.99 30.2812 124.615 33.7188C126.99 30.2812 130.375 28.5625 134.771 28.5625C138.438 28.5625 141.167 29.6354 142.959 31.7812C144.75 33.9062 145.646 37.1146 145.646 41.4062V63H136.584V41.4375C136.584 39.5208 136.209 38.125 135.459 37.25C134.709 36.3542 133.386 35.9062 131.49 35.9062C128.782 35.9062 126.907 37.1979 125.865 39.7812L125.896 63H116.865V41.4688C116.865 39.5104 116.48 38.0938 115.709 37.2188C114.938 36.3438 113.625 35.9062 111.771 35.9062C109.209 35.9062 107.355 36.9688 106.209 39.0938V63H97.1775V29.1875H105.646ZM169.457 63.625C164.499 63.625 160.457 62.1042 157.332 59.0625C154.228 56.0208 152.676 51.9688 152.676 46.9062V46.0312C152.676 42.6354 153.332 39.6042 154.645 36.9375C155.957 34.25 157.812 32.1875 160.207 30.75C162.624 29.2917 165.374 28.5625 168.457 28.5625C173.082 28.5625 176.718 30.0208 179.364 32.9375C182.03 35.8542 183.364 39.9896 183.364 45.3438V49.0312H161.832C162.124 51.2396 162.999 53.0104 164.457 54.3438C165.937 55.6771 167.801 56.3438 170.051 56.3438C173.53 56.3438 176.249 55.0833 178.207 52.5625L182.645 57.5312C181.291 59.4479 179.457 60.9479 177.145 62.0312C174.832 63.0938 172.27 63.625 169.457 63.625ZM168.426 35.875C166.635 35.875 165.176 36.4792 164.051 37.6875C162.947 38.8958 162.239 40.625 161.926 42.875H174.489V42.1562C174.447 40.1562 173.905 38.6146 172.864 37.5312C171.822 36.4271 170.343 35.875 168.426 35.875ZM243.611 57.25C241.924 59.2708 239.538 60.8438 236.455 61.9688C233.372 63.0729 229.955 63.625 226.205 63.625C222.267 63.625 218.809 62.7708 215.83 61.0625C212.872 59.3333 210.58 56.8333 208.955 53.5625C207.351 50.2917 206.528 46.4479 206.486 42.0312V38.9375C206.486 34.3958 207.247 30.4688 208.767 27.1562C210.309 23.8229 212.517 21.2812 215.392 19.5312C218.288 17.7604 221.674 16.875 225.549 16.875C230.945 16.875 235.163 18.1667 238.205 20.75C241.247 23.3125 243.049 27.0521 243.611 31.9688H234.486C234.07 29.3646 233.142 27.4583 231.705 26.25C230.288 25.0417 228.33 24.4375 225.83 24.4375C222.642 24.4375 220.215 25.6354 218.549 28.0312C216.882 30.4271 216.038 33.9896 216.017 38.7188V41.625C216.017 46.3958 216.924 50 218.736 52.4375C220.549 54.875 223.205 56.0938 226.705 56.0938C230.226 56.0938 232.736 55.3438 234.236 53.8438V46H225.705V39.0938H243.611V57.25ZM267.485 63.625C262.527 63.625 258.485 62.1042 255.36 59.0625C252.256 56.0208 250.704 51.9688 250.704 46.9062V46.0312C250.704 42.6354 251.36 39.6042 252.672 36.9375C253.985 34.25 255.839 32.1875 258.235 30.75C260.652 29.2917 263.402 28.5625 266.485 28.5625C271.11 28.5625 274.745 30.0208 277.391 32.9375C280.058 35.8542 281.391 39.9896 281.391 45.3438V49.0312H259.86C260.152 51.2396 261.027 53.0104 262.485 54.3438C263.964 55.6771 265.829 56.3438 268.079 56.3438C271.558 56.3438 274.277 55.0833 276.235 52.5625L280.672 57.5312C279.318 59.4479 277.485 60.9479 275.172 62.0312C272.86 63.0938 270.297 63.625 267.485 63.625ZM266.454 35.875C264.662 35.875 263.204 36.4792 262.079 37.6875C260.975 38.8958 260.266 40.625 259.954 42.875H272.516V42.1562C272.475 40.1562 271.933 38.6146 270.891 37.5312C269.85 36.4271 268.37 35.875 266.454 35.875ZM296.14 29.1875L296.421 33.0938C298.838 30.0729 302.077 28.5625 306.14 28.5625C309.723 28.5625 312.39 29.6146 314.14 31.7188C315.89 33.8229 316.786 36.9688 316.827 41.1562V63H307.796V41.375C307.796 39.4583 307.38 38.0729 306.546 37.2188C305.713 36.3438 304.327 35.9062 302.39 35.9062C299.848 35.9062 297.942 36.9896 296.671 39.1562V63H287.64V29.1875H296.14ZM340.545 63.625C335.587 63.625 331.545 62.1042 328.42 59.0625C325.316 56.0208 323.764 51.9688 323.764 46.9062V46.0312C323.764 42.6354 324.42 39.6042 325.732 36.9375C327.045 34.25 328.899 32.1875 331.295 30.75C333.712 29.2917 336.462 28.5625 339.545 28.5625C344.17 28.5625 347.805 30.0208 350.451 32.9375C353.118 35.8542 354.451 39.9896 354.451 45.3438V49.0312H332.92C333.212 51.2396 334.087 53.0104 335.545 54.3438C337.024 55.6771 338.889 56.3438 341.139 56.3438C344.618 56.3438 347.337 55.0833 349.295 52.5625L353.732 57.5312C352.378 59.4479 350.545 60.9479 348.232 62.0312C345.92 63.0938 343.357 63.625 340.545 63.625ZM339.514 35.875C337.722 35.875 336.264 36.4792 335.139 37.6875C334.035 38.8958 333.326 40.625 333.014 42.875H345.576V42.1562C345.535 40.1562 344.993 38.6146 343.951 37.5312C342.91 36.4271 341.43 35.875 339.514 35.875ZM379.887 37.6562C378.658 37.4896 377.575 37.4062 376.637 37.4062C373.221 37.4062 370.981 38.5625 369.919 40.875V63H360.887V29.1875H369.419L369.669 33.2188C371.481 30.1146 373.992 28.5625 377.2 28.5625C378.2 28.5625 379.137 28.6979 380.012 28.9688L379.887 37.6562ZM404.199 63C403.782 62.1875 403.48 61.1771 403.292 59.9688C401.105 62.4062 398.261 63.625 394.761 63.625C391.449 63.625 388.699 62.6667 386.511 60.75C384.345 58.8333 383.261 56.4167 383.261 53.5C383.261 49.9167 384.584 47.1667 387.23 45.25C389.897 43.3333 393.74 42.3646 398.761 42.3438H402.917V40.4062C402.917 38.8438 402.511 37.5938 401.699 36.6562C400.907 35.7188 399.647 35.25 397.917 35.25C396.397 35.25 395.199 35.6146 394.324 36.3438C393.47 37.0729 393.042 38.0729 393.042 39.3438H384.011C384.011 37.3854 384.615 35.5729 385.824 33.9062C387.032 32.2396 388.74 30.9375 390.949 30C393.157 29.0417 395.636 28.5625 398.386 28.5625C402.553 28.5625 405.855 29.6146 408.292 31.7188C410.751 33.8021 411.98 36.7396 411.98 40.5312V55.1875C412.001 58.3958 412.449 60.8229 413.324 62.4688V63H404.199ZM396.73 56.7188C398.063 56.7188 399.292 56.4271 400.417 55.8438C401.542 55.2396 402.376 54.4375 402.917 53.4375V47.625H399.542C395.022 47.625 392.615 49.1875 392.324 52.3125L392.292 52.8438C392.292 53.9688 392.688 54.8958 393.48 55.625C394.272 56.3542 395.355 56.7188 396.73 56.7188ZM431.01 20.875V29.1875H436.791V35.8125H431.01V52.6875C431.01 53.9375 431.25 54.8333 431.729 55.375C432.208 55.9167 433.125 56.1875 434.479 56.1875C435.479 56.1875 436.364 56.1146 437.135 55.9688V62.8125C435.364 63.3542 433.541 63.625 431.666 63.625C425.333 63.625 422.104 60.4271 421.979 54.0312V35.8125H417.041V29.1875H421.979V20.875H431.01ZM440.759 45.7812C440.759 42.4271 441.405 39.4375 442.696 36.8125C443.988 34.1875 445.842 32.1562 448.259 30.7188C450.696 29.2812 453.519 28.5625 456.727 28.5625C461.29 28.5625 465.009 29.9583 467.884 32.75C470.78 35.5417 472.394 39.3333 472.727 44.125L472.79 46.4375C472.79 51.625 471.342 55.7917 468.446 58.9375C465.55 62.0625 461.665 63.625 456.79 63.625C451.915 63.625 448.019 62.0625 445.102 58.9375C442.207 55.8125 440.759 51.5625 440.759 46.1875V45.7812ZM449.79 46.4375C449.79 49.6458 450.394 52.1042 451.602 53.8125C452.811 55.5 454.54 56.3438 456.79 56.3438C458.977 56.3438 460.686 55.5104 461.915 53.8438C463.144 52.1562 463.759 49.4688 463.759 45.7812C463.759 42.6354 463.144 40.1979 461.915 38.4688C460.686 36.7396 458.957 35.875 456.727 35.875C454.519 35.875 452.811 36.7396 451.602 38.4688C450.394 40.1771 449.79 42.8333 449.79 46.4375ZM498.633 37.6562C497.403 37.4896 496.32 37.4062 495.383 37.4062C491.966 37.4062 489.726 38.5625 488.664 40.875V63H479.633V29.1875H488.164L488.414 33.2188C490.226 30.1146 492.737 28.5625 495.945 28.5625C496.945 28.5625 497.883 28.6979 498.758 28.9688L498.633 37.6562Z" fill="#92BDFF"/>
</svg>
