<svg width="38" height="38" viewBox="0 0 38 38" fill="none" xmlns="http://www.w3.org/2000/svg">
<g clip-path="url(#clip0)">
<path d="M31.6608 13.9682C29.9046 6.97181 22.8092 2.72385 15.8128 4.48012C10.3453 5.85264 6.37521 10.5782 5.96616 16.2004C2.08398 16.8406 -0.544192 20.5067 0.096023 24.3889C0.665144 27.8402 3.65568 30.3678 7.15353 30.3539H13.0904V27.9791H7.15353C4.53048 27.9791 2.40405 25.8527 2.40405 23.2297C2.40405 20.6066 4.53048 18.4802 7.15353 18.4802C7.80933 18.4802 8.3409 17.9486 8.3409 17.2928C8.33496 11.3909 13.1146 6.60165 19.0165 6.59579C24.1255 6.59067 28.5234 10.2025 29.5117 15.2149C29.6093 15.7154 30.0154 16.0977 30.521 16.1648C33.7671 16.6271 36.0238 19.6333 35.5616 22.8793C35.1465 25.7941 32.6578 27.9644 29.7136 27.9791H24.9641V30.3539H29.7136C34.3039 30.34 38.0139 26.6075 37.9999 22.0171C37.9883 18.196 35.3729 14.875 31.6608 13.9682Z" fill="white"/>
<path d="M18.1842 18.8246L13.4347 23.5741L15.1089 25.2482L17.8398 22.5292V33.916H20.2146V22.5292L22.9337 25.2482L24.6078 23.5741L19.8584 18.8246C19.3952 18.3642 18.6473 18.3642 18.1842 18.8246Z" fill="white"/>
</g>
<defs>
<clipPath id="clip0">
<rect width="38" height="38" fill="white"/>
</clipPath>
</defs>
</svg>
