<svg width="90" height="90" viewBox="0 0 90 90" fill="none" xmlns="http://www.w3.org/2000/svg">
<g clip-path="url(#clip0)">
<path d="M74.9862 33.0826C70.8266 16.5121 54.0219 6.45118 37.4514 10.6108C24.5019 13.8615 15.0992 25.0535 14.1304 38.3694C4.93574 39.8857 -1.28887 48.5685 0.227429 57.7631C1.57535 65.9373 8.6582 71.9236 16.9426 71.8907H31.0035V66.2663H16.9426C10.7301 66.2663 5.6938 61.23 5.6938 55.0176C5.6938 48.8051 10.7301 43.7688 16.9426 43.7688C18.4958 43.7688 19.7548 42.5098 19.7548 40.9566C19.7407 26.9784 31.061 15.6354 45.0392 15.6216C57.1393 15.6094 67.5555 24.1638 69.8961 36.0353C70.1273 37.2206 71.0892 38.1261 72.2865 38.285C79.9747 39.3798 85.3194 46.4998 84.2248 54.1878C83.2418 61.0914 77.3474 66.2315 70.3742 66.2663H59.1254V71.8907H70.3742C81.2461 71.8579 90.0328 63.0177 89.9998 52.1458C89.9724 43.0958 83.7778 35.2303 74.9862 33.0826Z" fill="#829DFF"/>
<path d="M43.0679 44.5845L31.8191 55.8333L35.7843 59.7985L42.2523 53.3585V80.3274H47.8767V53.3585L54.3166 59.7985L58.2818 55.8333L47.033 44.5845C45.9361 43.4941 44.1648 43.4941 43.0679 44.5845Z" fill="#829DFF"/>
</g>
<defs>
<clipPath id="clip0">
<rect width="90" height="90" fill="white"/>
</clipPath>
</defs>
</svg>
